<?xml version="1.0" encoding="utf-8"?>
<!-- Generator: Adobe Illustrator 21.0.0, SVG Export Plug-In . SVG Version: 6.00 Build 0)  -->
<svg version="1.1" id="图层_1" xmlns="http://www.w3.org/2000/svg" xmlns:xlink="http://www.w3.org/1999/xlink" x="0px" y="0px"
	 viewBox="0 0 395.2 554.8" style="enable-background:new 0 0 395.2 554.8;" xml:space="preserve">
<style type="text/css">
	.st0{fill:#84EAFC;}
	.st1{fill:#51B6C8;}
	.st2{fill:#2399AE;}
</style>
<g id="图层_2">
	<g id="图层_3_复制">
		<polyline class="st0" points="197.6,147 266.9,187 266.9,267 197.6,307 		"/>
		<polygon class="st1" points="197.6,147 128.3,187 128.3,267 197.6,307 		"/>
		<polygon class="st2" points="197.6,0 1,113.5 1,194.4 91,246 91,165.5 197.6,103.9 304.2,165.5 304.2,165.9 394.2,217.5 
			394.2,113.5 		"/>
		<polygon class="st2" points="304.2,288.5 197.6,350.1 121.4,306.1 1,237 1,340.5 197.6,454 394.2,340.5 394.2,260.2 304.2,208.6 
					"/>
		<polygon class="st2" points="162.4,478.2 162.5,554.8 146.2,554.8 146.1,478.2 		"/>
		<polygon class="st2" points="203.1,508.1 203.1,478.5 219.4,478.5 219.5,554.8 203.2,554.8 203.2,524.9 176.1,524.9 176,508.1 		
			"/>
		<path class="st2" d="M247.5,508.3v27l2.9,2.9h35.4l2.7-2.9l0.1-37.5l-3-3h-54.1v-3.1c3.3-6.8,8-11.3,14.3-13.4h44.5
			c6.4,2.5,11.2,7.2,14.5,14v48.6c-2.6,6.2-7.6,11.2-13.8,13.8h-45.2c-6.2-2.5-11-7.5-14.3-14.9v-31.4H247.5z"/>
		<path class="st2" d="M321.9,543.9v-5.3H376l2.9-2.9l0.1-57.1h16.3l-0.1,65.6c-2.4,4.8-6.6,8.6-11.6,10.7h-50.4
			C328.8,553.9,325,550.3,321.9,543.9z M321.9,525.2l0.1-46.7h16.3l-0.1,46.7H321.9z M351.7,525l0.1-46.4h13.6l-0.1,46.4H351.7z"/>
		<rect x="27.2" y="478.5" class="st2" width="16.3" height="16"/>
		<path class="st2" d="M27.2,508.3V535l-3.1,3.1H0l0.1,16.6l28.2-0.1c7.9-2.5,12.9-7.6,15.2-15.2v-31.2H27.2z"/>
		<path class="st2" d="M73.5,524.8l39,0.1l0.1,0h18.6v-2.4c-3.4-7.3-8.2-12-14.5-14.3H57.9C60.6,517.4,65.8,522.9,73.5,524.8z"/>
		<path class="st2" d="M131.3,494.6v-16.3l-58.7-0.1c-6.4,2.4-11.3,7-14.7,13.8l0.1,2.6H131.3z"/>
		<path class="st2" d="M112.5,537.9L112.5,537.9L58.1,538l0.1,16.8l58.5-0.1c6.7-2.4,11.5-7,14.5-14v-2.7L112.5,537.9z"/>
	</g>
</g>
</svg>
